<?xml version="1.0" encoding="utf-8"?>
<!-- Generator: Adobe Illustrator 18.0.0, SVG Export Plug-In . SVG Version: 6.00 Build 0)  -->
<!DOCTYPE svg PUBLIC "-//W3C//DTD SVG 1.1//EN" "http://www.w3.org/Graphics/SVG/1.1/DTD/svg11.dtd">
<svg version="1.1" id="Layer_1" xmlns="http://www.w3.org/2000/svg" xmlns:xlink="http://www.w3.org/1999/xlink" x="0px" y="0px"
	 viewBox="0 0 200 200" enable-background="new 0 0 200 200" xml:space="preserve">
<g>
	<path fill="#D6D6D0" d="M200,112.4v-25h-19.8c-0.9-5.8-2.4-11.4-4.5-16.8l17.1-9.9l-12.5-21.6l-17,9.9c-3.7-4.5-7.8-8.6-12.3-12.3
		l9.9-17.1L139.2,7.1l-9.9,17.1c-5.3-2.1-11-3.6-16.8-4.5V0h-25v19.8c-5.8,0.9-11.4,2.4-16.8,4.5L60.9,7.1L39.3,19.6l9.9,17.1
		c-4.5,3.6-8.6,7.8-12.3,12.3l-17.1-9.9L7.2,60.8l17.1,9.9c-2.1,5.3-3.6,11-4.5,16.8H0.1v25h19.8c0.9,5.8,2.4,11.4,4.5,16.8
		l-17.1,9.9l12.5,21.6l17.1-9.9c3.6,4.5,7.8,8.6,12.3,12.3l-9.9,17.1l21.6,12.5l9.9-17.1c5.3,2.1,11,3.6,16.8,4.5V200h25v-19.8
		c5.8-0.9,11.4-2.4,16.8-4.5l9.9,17.1l21.6-12.5l-9.9-17.1c4.5-3.6,8.6-7.8,12.3-12.3l17.1,9.9l12.5-21.6l-17.1-9.9
		c2.1-5.3,3.6-11,4.5-16.8L200,112.4L200,112.4z M100,156.1c-31,0-56.2-25.2-56.2-56.2S69,43.7,100,43.7s56.2,25.2,56.2,56.2
		C156.3,130.9,131.1,156.1,100,156.1L100,156.1z"/>
</g>
</svg>
